<svg viewBox="0 0 330 200" xmlns="http://www.w3.org/2000/svg"><g><g><g><g><g><line x1="50" y1="178" x2="45" y2="178" style="visibility: inherit;" fill="rgb(0, 0, 0)" stroke="rgb(204, 204, 204)" stroke-width="1px"></line><line x1="50" y1="163.16666666666666" x2="45" y2="163.16666666666666" style="visibility: inherit;" fill="rgb(0, 0, 0)" stroke="rgb(204, 204, 204)" stroke-width="1px"></line><line x1="50" y1="148.33333333333334" x2="45" y2="148.33333333333334" style="visibility: inherit;" fill="rgb(0, 0, 0)" stroke="rgb(204, 204, 204)" stroke-width="1px"></line><line x1="50" y1="133.5" x2="45" y2="133.5" style="visibility: inherit;" fill="rgb(0, 0, 0)" stroke="rgb(204, 204, 204)" stroke-width="1px"></line><line x1="50" y1="118.66666666666667" x2="45" y2="118.66666666666667" style="visibility: inherit;" fill="rgb(0, 0, 0)" stroke="rgb(204, 204, 204)" stroke-width="1px"></line><line x1="50" y1="103.83333333333333" x2="45" y2="103.83333333333333" style="visibility: inherit;" fill="rgb(0, 0, 0)" stroke="rgb(204, 204, 204)" stroke-width="1px"></line><line x1="50" y1="89" x2="45" y2="89" style="visibility: inherit;" fill="rgb(0, 0, 0)" stroke="rgb(204, 204, 204)" stroke-width="1px"></line><line x1="50" y1="74.16666666666666" x2="45" y2="74.16666666666666" style="visibility: inherit;" fill="rgb(0, 0, 0)" stroke="rgb(204, 204, 204)" stroke-width="1px"></line><line x1="50" y1="59.33333333333334" x2="45" y2="59.33333333333334" style="visibility: inherit;" fill="rgb(0, 0, 0)" stroke="rgb(204, 204, 204)" stroke-width="1px"></line><line x1="50" y1="44.5" x2="45" y2="44.5" style="visibility: inherit;" fill="rgb(0, 0, 0)" stroke="rgb(204, 204, 204)" stroke-width="1px"></line><line x1="50" y1="29.666666666666657" x2="45" y2="29.666666666666657" style="visibility: inherit;" fill="rgb(0, 0, 0)" stroke="rgb(204, 204, 204)" stroke-width="1px"></line><line x1="50" y1="14.833333333333343" x2="45" y2="14.833333333333343" style="visibility: inherit;" fill="rgb(0, 0, 0)" stroke="rgb(204, 204, 204)" stroke-width="1px"></line><line x1="50" y1="0" x2="45" y2="0" style="visibility: inherit;" fill="rgb(0, 0, 0)" stroke="rgb(204, 204, 204)" stroke-width="1px"></line></g><g transform="translate(40, 0)"><text x="0" y="178" dx="0em" dy="0.3em" style="text-anchor: end; visibility: hidden; font-family: &quot;Helvetica Neue&quot;, sans-serif; font-size: 12px; font-weight: 200;" fill="rgb(50, 49, 63)" stroke="none" stroke-width="1px">-600</text><text x="0" y="163.16666666666666" dx="0em" dy="0.3em" style="text-anchor: end; visibility: inherit; font-family: &quot;Helvetica Neue&quot;, sans-serif; font-size: 12px; font-weight: 200;" fill="rgb(50, 49, 63)" stroke="none" stroke-width="1px">-550</text><text x="0" y="148.33333333333334" dx="0em" dy="0.3em" style="text-anchor: end; visibility: hidden; font-family: &quot;Helvetica Neue&quot;, sans-serif; font-size: 12px; font-weight: 200;" fill="rgb(50, 49, 63)" stroke="none" stroke-width="1px">-500</text><text x="0" y="133.5" dx="0em" dy="0.3em" style="text-anchor: end; visibility: inherit; font-family: &quot;Helvetica Neue&quot;, sans-serif; font-size: 12px; font-weight: 200;" fill="rgb(50, 49, 63)" stroke="none" stroke-width="1px">-450</text><text x="0" y="118.66666666666667" dx="0em" dy="0.3em" style="text-anchor: end; visibility: hidden; font-family: &quot;Helvetica Neue&quot;, sans-serif; font-size: 12px; font-weight: 200;" fill="rgb(50, 49, 63)" stroke="none" stroke-width="1px">-400</text><text x="0" y="103.83333333333333" dx="0em" dy="0.3em" style="text-anchor: end; visibility: inherit; font-family: &quot;Helvetica Neue&quot;, sans-serif; font-size: 12px; font-weight: 200;" fill="rgb(50, 49, 63)" stroke="none" stroke-width="1px">-350</text><text x="0" y="89" dx="0em" dy="0.3em" style="text-anchor: end; visibility: hidden; font-family: &quot;Helvetica Neue&quot;, sans-serif; font-size: 12px; font-weight: 200;" fill="rgb(50, 49, 63)" stroke="none" stroke-width="1px">-300</text><text x="0" y="74.16666666666666" dx="0em" dy="0.3em" style="text-anchor: end; visibility: inherit; font-family: &quot;Helvetica Neue&quot;, sans-serif; font-size: 12px; font-weight: 200;" fill="rgb(50, 49, 63)" stroke="none" stroke-width="1px">-250</text><text x="0" y="59.33333333333334" dx="0em" dy="0.3em" style="text-anchor: end; visibility: hidden; font-family: &quot;Helvetica Neue&quot;, sans-serif; font-size: 12px; font-weight: 200;" fill="rgb(50, 49, 63)" stroke="none" stroke-width="1px">-200</text><text x="0" y="44.5" dx="0em" dy="0.3em" style="text-anchor: end; visibility: inherit; font-family: &quot;Helvetica Neue&quot;, sans-serif; font-size: 12px; font-weight: 200;" fill="rgb(50, 49, 63)" stroke="none" stroke-width="1px">-150</text><text x="0" y="29.666666666666657" dx="0em" dy="0.3em" style="text-anchor: end; visibility: hidden; font-family: &quot;Helvetica Neue&quot;, sans-serif; font-size: 12px; font-weight: 200;" fill="rgb(50, 49, 63)" stroke="none" stroke-width="1px">-100</text><text x="0" y="14.833333333333343" dx="0em" dy="0.3em" style="text-anchor: end; visibility: inherit; font-family: &quot;Helvetica Neue&quot;, sans-serif; font-size: 12px; font-weight: 200;" fill="rgb(50, 49, 63)" stroke="none" stroke-width="1px">-50</text><text x="0" y="0" dx="0em" dy="0.3em" style="text-anchor: end; visibility: hidden; font-family: &quot;Helvetica Neue&quot;, sans-serif; font-size: 12px; font-weight: 200;" fill="rgb(50, 49, 63)" stroke="none" stroke-width="1px">0</text></g><line x1="50" y1="0" x2="50" y2="178" fill="rgb(0, 0, 0)" stroke="rgb(204, 204, 204)" stroke-width="1px"></line></g></g><g transform="translate(50, 0)" clip-path="url(#clip_0)"><clipPath id="clip_0"><rect width="280" height="177"></rect></clipPath><g><g><g><line x1="0" y1="0" x2="0" y2="178" fill="rgb(0, 0, 0)" stroke="rgb(60, 60, 60)" stroke-width="1px" opacity="0.25"></line><line x1="35" y1="0" x2="35" y2="178" fill="rgb(0, 0, 0)" stroke="rgb(60, 60, 60)" stroke-width="1px" opacity="0.25"></line><line x1="70" y1="0" x2="70" y2="178" fill="rgb(0, 0, 0)" stroke="rgb(60, 60, 60)" stroke-width="1px" opacity="0.25"></line><line x1="105" y1="0" x2="105" y2="178" fill="rgb(0, 0, 0)" stroke="rgb(60, 60, 60)" stroke-width="1px" opacity="0.25"></line><line x1="140" y1="0" x2="140" y2="178" fill="rgb(0, 0, 0)" stroke="rgb(60, 60, 60)" stroke-width="1px" opacity="0.25"></line><line x1="175" y1="0" x2="175" y2="178" fill="rgb(0, 0, 0)" stroke="rgb(60, 60, 60)" stroke-width="1px" opacity="0.25"></line><line x1="210" y1="0" x2="210" y2="178" fill="rgb(0, 0, 0)" stroke="rgb(60, 60, 60)" stroke-width="1px" opacity="0.25"></line><line x1="245" y1="0" x2="245" y2="178" fill="rgb(0, 0, 0)" stroke="rgb(60, 60, 60)" stroke-width="1px" opacity="0.25"></line><line x1="280" y1="0" x2="280" y2="178" fill="rgb(0, 0, 0)" stroke="rgb(60, 60, 60)" stroke-width="1px" opacity="0.25"></line></g><g><line x1="0" y1="178" x2="280" y2="178" fill="rgb(0, 0, 0)" stroke="rgb(60, 60, 60)" stroke-width="1px" opacity="0.25"></line><line x1="0" y1="163.16666666666666" x2="280" y2="163.16666666666666" fill="rgb(0, 0, 0)" stroke="rgb(60, 60, 60)" stroke-width="1px" opacity="0.25"></line><line x1="0" y1="148.33333333333334" x2="280" y2="148.33333333333334" fill="rgb(0, 0, 0)" stroke="rgb(60, 60, 60)" stroke-width="1px" opacity="0.25"></line><line x1="0" y1="133.5" x2="280" y2="133.5" fill="rgb(0, 0, 0)" stroke="rgb(60, 60, 60)" stroke-width="1px" opacity="0.25"></line><line x1="0" y1="118.66666666666667" x2="280" y2="118.66666666666667" fill="rgb(0, 0, 0)" stroke="rgb(60, 60, 60)" stroke-width="1px" opacity="0.25"></line><line x1="0" y1="103.83333333333333" x2="280" y2="103.83333333333333" fill="rgb(0, 0, 0)" stroke="rgb(60, 60, 60)" stroke-width="1px" opacity="0.25"></line><line x1="0" y1="89" x2="280" y2="89" fill="rgb(0, 0, 0)" stroke="rgb(60, 60, 60)" stroke-width="1px" opacity="0.25"></line><line x1="0" y1="74.16666666666666" x2="280" y2="74.16666666666666" fill="rgb(0, 0, 0)" stroke="rgb(60, 60, 60)" stroke-width="1px" opacity="0.25"></line><line x1="0" y1="59.33333333333334" x2="280" y2="59.33333333333334" fill="rgb(0, 0, 0)" stroke="rgb(60, 60, 60)" stroke-width="1px" opacity="0.25"></line><line x1="0" y1="44.5" x2="280" y2="44.5" fill="rgb(0, 0, 0)" stroke="rgb(60, 60, 60)" stroke-width="1px" opacity="0.25"></line><line x1="0" y1="29.666666666666657" x2="280" y2="29.666666666666657" fill="rgb(0, 0, 0)" stroke="rgb(60, 60, 60)" stroke-width="1px" opacity="0.25"></line><line x1="0" y1="14.833333333333343" x2="280" y2="14.833333333333343" fill="rgb(0, 0, 0)" stroke="rgb(60, 60, 60)" stroke-width="1px" opacity="0.25"></line><line x1="0" y1="0" x2="280" y2="0" fill="rgb(0, 0, 0)" stroke="rgb(60, 60, 60)" stroke-width="1px" opacity="0.25"></line></g></g></g><g><g><line x1="0" y1="0" x2="280" y2="0" fill="rgb(0, 0, 0)" stroke="rgb(153, 153, 153)" stroke-width="1.5px"></line></g></g><g><g><line x1="35" y1="0" x2="35" y2="178" fill="rgb(0, 0, 0)" stroke="rgb(153, 153, 153)" stroke-width="1.5px"></line></g></g><g><g><g><g><g><path stroke="rgb(255, 112, 67)" stroke-width="2px" d="M35,148.33333333333334L35.7,148.33333333333334L36.4,148.33333333333334L37.1,148.33333333333331L37.800000000000004,148.33333333333334L38.5,148.33333333333334L39.2,148.33333333333331L39.9,148.33333333333334L40.599999999999994,148.33333333333331L41.3,148.13037131773663L42,148.02725011853485L42.699999999999996,147.98107463037613L43.4,147.96650604034957L44.1,147.96965377156704L44.800000000000004,147.98103703575302L45.5,147.99617344798028L46.2,148.01237347757868L46.900000000000006,148.02921217363757L47.6,148.0452465429712L48.3,148.05961439347692L49,148.07298255238967L49.699999999999996,148.08575100320525L50.4,148.09697184939174L51.1,148.1072641724014L51.8,148.116999400259L52.5,148.12640038047562L53.2,148.13441299039243L53.9,148.14159620359456L54.6,147.7685432373722L55.300000000000004,147.5589509693301L56,147.44743868204097L56.7,147.39358291522484L57.4,147.3743246749731L58.099999999999994,147.3734492971463L58.8,147.38478784020143L59.5,147.40108632733583L60.199999999999996,147.4215449850047L60.9,147.44331191946907L61.6,147.46467961592174L62.300000000000004,147.4858077695813L63,147.5067921975729L63.7,147.52650256464696L64.4,147.54544849517387L65.10000000000001,147.56393576377417L65.8,147.58214783521953L66.5,147.59900696285152L67.2,147.61505794561515L67.89999999999999,147.63062042003872L68.6,147.6458934108776L69.3,147.65980126462563L70,147.67289365753845L70.7,147.6854967739502L71.4,147.6978063244613L72.10000000000001,147.70993611401272L72.8,147.72196166840766L73.5,147.73392468170866L74.2,147.74466234483248L74.9,147.75466479785L75.60000000000001,147.76541395032461L76.30000000000001,147.77542329695257L77,147.78498876007257L77.7,147.7942878930878L78.4,147.80223940251935L79.1,147.81057016332147L79.8,147.819128474946L80.5,147.82663549154313L81.19999999999999,147.83469955664464L81.89999999999999,147.84191364674717L82.6,147.84980195595196L83.3,147.85690697109723L84,147.86354563122603L84.7,147.8699008569257L85.39999999999999,147.87608602196792L86.1,147.81334407737344L86.8,147.77925876576L87.5,147.76236743393517L88.2,147.75460828588194L88.9,147.75351265219322L89.60000000000001,147.7552273016024L90.3,147.75981594639111L91,147.76494116288674L91.7,147.77039194382579L92.4,147.77722226753247L93.10000000000001,147.78369249137884L93.80000000000001,147.78995027672838L94.5,147.79607697756046L95.2,147.44612502768211L95.9,146.8552348717525L96.6,146.1435129526739L97.3,145.40082603332309L98,144.68465402656938L98.69999999999999,144.01049777889733L99.39999999999999,143.21203344923944L100.1,142.33542079382752L100.8,141.47837218658296L101.5,140.60695519671543L102.2,139.76726703078964L102.89999999999999,138.88134731971076L103.6,138.005662884014L104.3,137.1467991789761L105,136.25530602919554L105.7,135.38695709570743L106.4,134.44230686647393L107.10000000000001,133.48391817750155L107.8,132.44726989250356L108.5,131.36604150093183L109.2,130.27705214665286L109.9,129.1762828830438L110.60000000000001,128.07319697592004L111.30000000000001,127.02211890983587L112,125.95952366523744L112.7,124.88646187980655L113.4,123.78694524311831L114.1,122.66562018949078L114.8,121.56088037378561L115.5,120.43998126789117L116.19999999999999,119.31532209406804L116.89999999999999,118.18009934368041L117.6,117.06583308439835L118.3,115.97956796587339L119,114.91721962066987L119.7,113.87871670078732L120.39999999999999,112.79044364351927L121.1,111.67824038858551L121.8,110.61694423315129L122.5,109.56364538103662L123.2,108.48073418500219L123.9,107.4073465982409L124.60000000000001,106.38120723466069L125.3,105.33595086260631L126,104.28753182127473L126.7,103.22653199152786L127.4,102.13781238339327L128.1,101.027713227562L128.8,99.90597416863355L129.5,98.74521247155775L130.20000000000002,97.59307588788255L130.9,96.44729857634933L131.6,95.30178059437729L132.29999999999998,94.10776082081908L133,92.91668229001749L133.7,91.72974415591155L134.4,90.52629953716671L135.1,89.37466001201356L135.79999999999998,88.25410354301542L136.5,87.09167574885613L137.2,85.95040689788138L137.9,84.86692370415852L138.6,83.73860726611491L139.3,82.59881812757257L140,81.42603855720762L140.7,80.27618298946778L141.4,79.11872269244368L142.1,77.94364796279693L142.8,76.77580203858311L143.5,75.59924180257697L144.20000000000002,74.41982500911779L144.89999999999998,73.23750826637563L145.6,72.03209242320428L146.29999999999998,70.8223088596843L147,69.65381256190433L147.7,68.46974058076239L148.4,67.28700456574258L149.1,66.11930955096898L149.8,64.97606638243687L150.5,63.82969323522384L151.20000000000002,62.67669623084784L151.9,61.51260520188761L152.60000000000002,60.34541580261043L153.29999999999998,59.17874303218474L154,58.03373936992935L154.7,56.86020311495889L155.4,55.701587811358166L156.1,54.599392831671665L156.8,53.457475481717836L157.5,52.29884441989009L158.2,51.123067231361134L158.9,50.012947150340125L159.6,48.86390089925354L160.3,47.6938745971693L161,46.521938019206544L161.70000000000002,45.361908681478354L162.39999999999998,44.218519049219026L163.1,43.041205342291846L163.79999999999998,41.88862929261467L164.5,40.73309837228106L165.2,39.874833225842565L165.9,39.23289993550554L166.6,38.680419526733004L167.3,38.14245153496884L168,37.58233740657701L168.70000000000002,36.99944204559009L169.4,36.56426558949596L170.10000000000002,36.229586056578455L170.79999999999998,35.90417797468598L171.5,35.59976000950235L172.2,35.30081640405754L172.9,35.03245024079064L173.6,34.79073717328299L174.3,34.55908226775557L175,34.30023573760647L175.7,33.98354108042196L176.4,33.9074450828235L177.1,33.75142744805021L177.8,33.634082990639996L178.5,33.52688993924079L179.20000000000002,33.536146862307504L179.89999999999998,33.5417010161475L180.6,33.49519372573667L181.29999999999998,33.384223046965474L182,33.25356053106012L182.7,33.131256028922536L183.4,33.17298013916343L184.1,33.16004130818882L184.8,33.11074485734167L185.5,33.06217988559641L186.20000000000002,33.009307931357824L186.9,32.976397838648694L187.60000000000002,32.963772398664474L188.29999999999998,32.88025054043567L189,32.742323440309576L189.7,32.57768779587519L190.4,32.478906409214574L191.1,32.394716780505945L191.8,32.24808329299432L192.5,32.07703689596261L193.2,31.915075724410258L193.9,31.846378767979473L194.6,31.80516059412102L195.3,31.751949943305277L196,31.67136978491223L196.70000000000002,31.553008791113342L197.39999999999998,31.4368982820736L198.1,31.35892534619728L198.79999999999998,31.27179535257514L199.5,31.233756776974786L200.2,31.157533993756488L200.9,31.06908025139711L201.6,30.96854115824388L202.3,30.923644948445656L203,30.865853635734055L203.70000000000002,30.821685297488642L204.4,30.808237700303067L205.10000000000002,30.742022728824395L205.79999999999998,30.62397331136691L206.5,30.56263721151089L207.2,30.474808848716464L207.9,30.311751794825568L208.6,30.218664337800305L209.3,30.16399878375114L210,30.132386371487655L210.7,30.063578236059925L211.4,29.98787991282734L212.1,29.94839461436308L212.8,29.871303797426435L213.5,29.90574267681197L214.20000000000002,29.94895205546871L214.89999999999998,29.957077501591783L215.6,30.074686645811823L216.29999999999998,30.1499989076531L217,30.11923967051962L217.7,30.078237171859286L218.4,30.035835491592138L219.1,29.972421186312687L219.8,29.883345900264203L220.5,29.80379391711162L221.20000000000002,29.741823306647177L221.9,29.71769434613026L222.60000000000002,29.740003346773193L223.29999999999998,29.709481754564564L224,29.62827561076284L224.7,29.59023239526627L225.4,29.559099835515923L226.1,29.483459901309544L226.8,29.41908883954872L227.5,29.36503986175333L228.2,29.31125043886189L228.9,29.179297219697332L229.6,29.13809858531775L230.3,29.106258789048724L231,29.05511530964344L231.70000000000002,28.975775454096606L232.39999999999998,28.902065634599893L233.1,28.848346192283373L233.79999999999998,28.75440735322809L234.5,28.68380462922204L235.2,28.65093654543685L235.9,28.63833540545221L236.6,28.621281170842934L237.3,28.630035731314365L238,28.670887924384346L238.70000000000002,28.70963956615404L239.4,28.699664029405966L240.10000000000002,28.6735046859541L240.79999999999998,28.63288918852561L241.5,28.619200360853L242.2,28.596746738321684L242.9,28.583274564802906L243.6,28.537217963572516L244.3,28.496530597072535L245,28.46262462655409L245.7,28.424481768526846L246.4,28.242582249592658L247.1,28.14174916868464L247.8,28.08124932013982L248.5,28.02240335998752L249.20000000000002,27.854188791301766L249.89999999999998,27.71647367313716L250.6,27.617230435978684L251.29999999999998,27.560058334015594L252,27.53050184814697L252.7,27.487848065268395L253.4,27.3139224622079L254.1,27.219059745635292L254.8,27.140782079477532L255.5,27.083135914353193L256.2,27.015321693468678L256.9,26.937846783984867L257.6,26.81778817903347L258.3,26.733886530466975" style="fill: none;" fill="none"></path></g></g></g></g><g opacity="0.2"><g><g><g><path stroke="rgb(255, 112, 67)" stroke-width="2px" d="M35,148.33333333333334L35.7,148.33333333333334L36.4,148.33333333333334L37.1,148.33333333333334L37.800000000000004,148.33333333333334L38.5,148.33333333333334L39.2,148.33333333333334L39.9,148.33333333333334L40.599999999999994,148.33333333333334L41.3,147.82899637858074L42,147.87350362141927L42.699999999999996,147.91206268310546L43.4,147.94470072428385L44.1,147.97436920166015L44.800000000000004,147.9980985514323L45.5,148.01886739095053L46.2,148.03666666666666L46.900000000000006,148.05446594238282L47.6,148.06929565429687L48.3,148.08116485595704L49,148.0930340576172L49.699999999999996,148.10490325927734L50.4,148.11380289713543L51.1,148.1227025349935L51.8,148.13160217285156L52.5,148.14050181070962L53.2,148.14643188476563L53.9,148.1523710123698L54.6,147.20896413167318L55.300000000000004,147.24456268310547L56,147.28017028808594L56.7,147.31279927571615L57.4,147.34543731689453L58.099999999999994,147.37213623046875L58.8,147.40179565429688L59.5,147.4255340576172L60.199999999999996,147.4522329711914L60.9,147.47596232096353L61.6,147.49673116048177L62.300000000000004,147.51749999999998L63,147.53826883951822L63.7,147.55606811523438L64.4,147.5738673909505L65.10000000000001,147.59166666666667L65.8,147.60946594238283L66.5,147.62429565429687L67.2,147.6391344197591L67.89999999999999,147.65396413167318L68.6,147.6688028971354L69.3,147.6806630452474L70,147.69253224690755L70.7,147.7044014485677L71.4,147.71627065022787L72.10000000000001,147.72813079833983L72.8,147.74L73.5,147.75186920166016L74.2,147.76076883951822L74.9,147.7696684773763L75.60000000000001,147.78153767903646L76.30000000000001,147.79043731689453L77,147.79933695475262L77.7,147.80823659261068L78.4,147.81416666666667L79.1,147.82306630452473L79.8,147.83196594238282L80.5,147.8378960164388L81.19999999999999,147.84679565429687L81.89999999999999,147.85273478190103L82.6,147.86163441975913L83.3,147.8675644938151L84,147.87350362141927L84.7,147.87943369547526L85.39999999999999,147.88536376953124L86.1,147.71923116048177L86.8,147.72813079833983L87.5,147.73703043619793L88.2,147.7429695638021L88.9,147.75186920166016L89.60000000000001,147.75779927571614L90.3,147.7666989135742L91,147.7726289876302L91.7,147.77856811523438L92.4,147.78746775309244L93.10000000000001,147.79339782714845L93.80000000000001,147.79933695475262L94.5,147.8052670288086L95.2,146.9211971028646L95.9,145.96889963785807L96.6,145.07593007405598L97.3,144.28679565429687L98,143.6103960164388L98.69999999999999,142.99926340738932L99.39999999999999,142.0143369547526L100.1,141.02050181070965L100.8,140.19279927571614L101.5,139.29982971191407L102.2,138.50773478190104L102.89999999999999,137.55246775309246L103.6,136.69213623046875L104.3,135.85850362141926L105,134.91806630452473L105.7,134.08443369547527L106.4,133.0253315226237L107.10000000000001,132.04633514404298L107.8,130.89229746500652L108.5,129.74419891357422L109.2,128.64356811523436L109.9,127.52512898763021L110.60000000000001,126.41856811523436L111.30000000000001,125.44550181070963L112,124.36563079833985L112.7,123.27686920166016L113.4,122.13767028808593L114.1,120.98363260904948L114.8,119.90377065022787L115.5,118.75863260904949L116.19999999999999,117.62833333333333L116.89999999999999,116.47726521809895L117.6,115.39443369547527L118.3,114.35017028808593L119,113.32369710286459L119.7,112.32096232096355L120.39999999999999,111.15803405761719L121.1,110.0099355061849L121.8,109.02499999999999L122.5,107.98369710286458L123.2,106.85636739095052L123.9,105.79726521809896L124.60000000000001,104.84199818929036L125.3,103.76806630452474L126,102.71490325927734L126.7,101.63503224690756L127.4,100.50473297119142L128.1,99.3625644938151L128.8,98.22336558024088L129.5,97.00406992594401L130.20000000000002,95.86487101236979L130.9,94.72863260904948L131.6,93.58350362141927L132.29999999999998,92.31673116048177L133,91.1300644938151L133.7,89.94933695475261L134.4,88.72113260904948L135.1,87.64720072428385L135.79999999999998,86.57326883951822L136.5,85.34803405761718L137.2,84.23850362141926L137.9,83.24169891357423L138.6,82.04613260904948L139.3,80.88913441975912L140,79.66686920166016L140.7,78.55139963785807L141.4,77.38253224690756L142.1,76.18103586832682L142.8,75.02403315226236L143.5,73.83440144856772L144.20000000000002,72.65069981892904L144.89999999999998,71.46403315226236L145.6,70.22396865844726L146.29999999999998,69.00763351440429L147,67.90106811523438L147.7,66.69363260904947L148.4,65.5129005432129L149.1,64.3677670288086L149.8,63.26120162963868L150.5,62.110133514404296L151.20000000000002,60.947200724283846L151.9,59.766468658447266L152.60000000000002,58.594631703694645L153.29999999999998,57.42873387654623L154,56.316233876546235L154.7,55.09989873250326L155.4,53.963664855957035L156.1,52.946100362141934L156.8,51.744599456787114L157.5,50.56089782714844L158.2,49.359401448567695L158.9,48.34776702880859L159.6,47.14033152262371L160.3,45.93883514404297L161,44.764033152262385L161.70000000000002,43.62186467488607L162.39999999999998,42.503434600830076L163.1,41.27523478190105L163.79999999999998,40.159765218098954L164.5,38.9998019917806L165.2,38.5874355061849L165.9,38.26999999999998L166.6,37.85169891357424L167.3,37.3354995473226L168,36.742166213989265L168.70000000000002,36.1250990041097L169.4,35.91150090535481L170.10000000000002,35.72756675720217L170.79999999999998,35.41606585184732L171.5,35.1431330617269L172.2,34.85240099589029L172.9,34.629900995890296L173.6,34.428167572021465L174.3,34.211599909464525L175,33.91196594238281L175.7,33.508499094645174L176.4,33.7933010864258L177.1,33.51740099589031L177.8,33.45806630452475L178.5,33.366100362141935L179.20000000000002,33.55003224690756L179.89999999999998,33.55003224690756L180.6,33.42543279012045L181.29999999999998,33.217767028808595L182,33.05756675720215L182.7,32.947799275716136L183.4,33.235566304524724L184.1,33.140633061726874L184.8,33.03680018107096L185.5,32.989332427978496L186.20000000000002,32.93000000000001L186.9,32.92703269958494L187.60000000000002,32.944834238688145L188.29999999999998,32.754967753092444L189,32.53543279012044L189.7,32.33073432922362L190.4,32.33073432922362L191.1,32.268432337443045L191.8,32.02813306172689L192.5,31.820467300415032L193.2,31.67213396708172L193.9,31.74333333333334L194.6,31.74333333333334L195.3,31.67213396708172L196,31.5504995473226L196.70000000000002,31.37546730041504L197.39999999999998,31.262732518513985L198.1,31.24196594238282L198.79999999999998,31.141100362141913L199.5,31.1766989135742L200.2,31.043199818929025L200.9,30.936399637858074L201.6,30.817732518513992L202.3,30.85630063374836L203,30.77916666666667L203.70000000000002,30.755432790120437L204.4,30.788066304524733L205.10000000000002,30.64270027160643L205.79999999999998,30.446899185180683L206.5,30.470633061726886L207.2,30.34306630452474L207.9,30.067166213989253L208.6,30.079033152262383L209.3,30.08200045267742L210,30.084967753092457L210.7,29.9603660329183L211.4,29.874332427978516L212.1,29.889166666666682L212.8,29.75566757202148L213.5,29.95740099589031L214.20000000000002,30.01376612345379L214.89999999999998,29.969265670776366L215.6,30.251100362141926L216.29999999999998,30.262967300415056L217,30.073100814819355L217.7,30.01673342386883L218.4,29.972232971191403L219.1,29.877299728393552L219.8,29.749732971191406L220.5,29.684465942382815L221.20000000000002,29.648867390950528L221.9,29.681500905354824L222.60000000000002,29.773466847737637L223.29999999999998,29.66369936625162L224,29.506466395060215L224.7,29.533167572021483L225.4,29.51240099589029L226.1,29.370000000000005L226.8,29.322532246907542L227.5,29.28396639506022L228.2,29.23056630452473L228.9,28.98136739095051L229.6,29.07630063374836L230.3,29.058499094645185L231,28.978400090535473L231.70000000000002,28.856765670776383L232.39999999999998,28.79150090535481L233.1,28.767767028808578L233.79999999999998,28.613499094645192L234.5,28.577900543212905L235.2,28.601634419759108L235.9,28.619433695475266L236.6,28.595699818929035L237.3,28.64316757202147L238,28.732166213989274L238.70000000000002,28.767767028808578L239.4,28.684700724283857L240.10000000000002,28.634265670776387L240.79999999999998,28.571965942382832L241.5,28.59866711934407L242.2,28.56306630452474L242.9,28.56306630452474L243.6,28.46813306172689L244.3,28.435499547322593L245,28.41176567077636L245.7,28.36726748148601L246.4,27.969732971191405L247.1,27.9904995473226L247.8,27.9904995473226L248.5,27.93413441975912L249.20000000000002,27.601866938273105L249.89999999999998,27.50990099589029L250.6,27.468365580240885L251.29999999999998,27.47430018107096L252,27.48616711934406L252.7,27.423867390950505L253.4,27.053034057617168L254.1,27.076765670776382L254.8,27.023365580240892L255.5,26.99666666666667L256.2,26.91360036214192L256.9,26.821634419759107L257.6,26.637700271606462L258.3,26.608034057617203" style="fill: none;" fill="none"></path></g></g></g></g></g></g><g transform="translate(50, 178)" clip-path="url(#clip_1)"><clipPath id="clip_1"><rect width="280" height="21"></rect></clipPath><g><g><line x1="0" y1="0" x2="0" y2="5" style="visibility: inherit;" fill="rgb(0, 0, 0)" stroke="rgb(204, 204, 204)" stroke-width="1px"></line><line x1="35" y1="0" x2="35" y2="5" style="visibility: inherit;" fill="rgb(0, 0, 0)" stroke="rgb(204, 204, 204)" stroke-width="1px"></line><line x1="70" y1="0" x2="70" y2="5" style="visibility: inherit;" fill="rgb(0, 0, 0)" stroke="rgb(204, 204, 204)" stroke-width="1px"></line><line x1="105" y1="0" x2="105" y2="5" style="visibility: inherit;" fill="rgb(0, 0, 0)" stroke="rgb(204, 204, 204)" stroke-width="1px"></line><line x1="140" y1="0" x2="140" y2="5" style="visibility: inherit;" fill="rgb(0, 0, 0)" stroke="rgb(204, 204, 204)" stroke-width="1px"></line><line x1="175" y1="0" x2="175" y2="5" style="visibility: inherit;" fill="rgb(0, 0, 0)" stroke="rgb(204, 204, 204)" stroke-width="1px"></line><line x1="210" y1="0" x2="210" y2="5" style="visibility: inherit;" fill="rgb(0, 0, 0)" stroke="rgb(204, 204, 204)" stroke-width="1px"></line><line x1="245" y1="0" x2="245" y2="5" style="visibility: inherit;" fill="rgb(0, 0, 0)" stroke="rgb(204, 204, 204)" stroke-width="1px"></line><line x1="280" y1="0" x2="280" y2="5" style="visibility: inherit;" fill="rgb(0, 0, 0)" stroke="rgb(204, 204, 204)" stroke-width="1px"></line></g><g transform="translate(0, 8)"><text x="0" y="0" dx="0em" dy="0.95em" style="text-anchor: middle; visibility: hidden; font-family: &quot;Helvetica Neue&quot;, sans-serif; font-size: 12px; font-weight: 200;" fill="rgb(50, 49, 63)" stroke="none" stroke-width="1px">-50</text><text x="35" y="0" dx="0em" dy="0.95em" style="text-anchor: middle; visibility: inherit; font-family: &quot;Helvetica Neue&quot;, sans-serif; font-size: 12px; font-weight: 200;" fill="rgb(50, 49, 63)" stroke="none" stroke-width="1px">0</text><text x="70" y="0" dx="0em" dy="0.95em" style="text-anchor: middle; visibility: inherit; font-family: &quot;Helvetica Neue&quot;, sans-serif; font-size: 12px; font-weight: 200;" fill="rgb(50, 49, 63)" stroke="none" stroke-width="1px">50</text><text x="105" y="0" dx="0em" dy="0.95em" style="text-anchor: middle; visibility: inherit; font-family: &quot;Helvetica Neue&quot;, sans-serif; font-size: 12px; font-weight: 200;" fill="rgb(50, 49, 63)" stroke="none" stroke-width="1px">100</text><text x="140" y="0" dx="0em" dy="0.95em" style="text-anchor: middle; visibility: inherit; font-family: &quot;Helvetica Neue&quot;, sans-serif; font-size: 12px; font-weight: 200;" fill="rgb(50, 49, 63)" stroke="none" stroke-width="1px">150</text><text x="175" y="0" dx="0em" dy="0.95em" style="text-anchor: middle; visibility: inherit; font-family: &quot;Helvetica Neue&quot;, sans-serif; font-size: 12px; font-weight: 200;" fill="rgb(50, 49, 63)" stroke="none" stroke-width="1px">200</text><text x="210" y="0" dx="0em" dy="0.95em" style="text-anchor: middle; visibility: inherit; font-family: &quot;Helvetica Neue&quot;, sans-serif; font-size: 12px; font-weight: 200;" fill="rgb(50, 49, 63)" stroke="none" stroke-width="1px">250</text><text x="245" y="0" dx="0em" dy="0.95em" style="text-anchor: middle; visibility: inherit; font-family: &quot;Helvetica Neue&quot;, sans-serif; font-size: 12px; font-weight: 200;" fill="rgb(50, 49, 63)" stroke="none" stroke-width="1px">300</text><text x="280" y="0" dx="0em" dy="0.95em" style="text-anchor: middle; visibility: hidden; font-family: &quot;Helvetica Neue&quot;, sans-serif; font-size: 12px; font-weight: 200;" fill="rgb(50, 49, 63)" stroke="none" stroke-width="1px">350</text></g><line x1="0" y1="0" x2="280" y2="0" fill="rgb(0, 0, 0)" stroke="rgb(204, 204, 204)" stroke-width="1px"></line></g></g></g></g></svg>